<?xml version="1.0" encoding="utf-8"?>
<!-- Generator: Adobe Illustrator 18.0.0, SVG Export Plug-In . SVG Version: 6.00 Build 0)  -->
<!DOCTYPE svg PUBLIC "-//W3C//DTD SVG 1.1//EN" "http://www.w3.org/Graphics/SVG/1.1/DTD/svg11.dtd">
<svg version="1.1" id="Layer_1" xmlns="http://www.w3.org/2000/svg" xmlns:xlink="http://www.w3.org/1999/xlink" x="0px" y="0px"
	 viewBox="0 0 318.8 318.8" enable-background="new 0 0 318.8 318.8" xml:space="preserve">
<rect x="4.1" y="4.1" fill="#E64C3C" stroke="#E64C3C" stroke-width="8.2553" stroke-miterlimit="10" width="310.5" height="310.5"/>
<circle fill="#FFFFFF" stroke="#E64C3C" stroke-width="11.9642" stroke-miterlimit="10" cx="159.4" cy="193.6" r="89"/>
<g>
	<path fill="#FFFFFF" d="M39.4,39.9h5.7v44.6h-5.7V39.9z"/>
	<path fill="#FFFFFF" d="M56.6,51.4h4.6l0.5,4.8h0.2c3.1-3.1,6.5-5.6,11.1-5.6c6.9,0,10.1,4.5,10.1,12.9v20.9h-5.6V64.3
		c0-6.2-1.9-8.8-6.3-8.8c-3.4,0-5.7,1.8-9,5.1v23.9h-5.6V51.4z"/>
	<path fill="#FFFFFF" d="M92.9,77c2.9,2.3,5.8,3.9,9.7,3.9c4.4,0,6.5-2.3,6.5-5.2c0-3.4-3.9-4.9-7.5-6.3c-4.7-1.7-9.9-3.9-9.9-9.5
		c0-5.3,4.2-9.4,11.4-9.4c4.1,0,7.8,1.7,10.3,3.7l-2.7,3.5c-2.2-1.7-4.6-2.9-7.5-2.9c-4.1,0-6.1,2.2-6.1,4.8c0,3.1,3.6,4.3,7.3,5.7
		c4.8,1.8,10.1,3.7,10.1,10c0,5.4-4.3,9.9-12.1,9.9c-4.7,0-9.2-2-12.3-4.6L92.9,77z"/>
	<path fill="#FFFFFF" d="M134.7,50.6c8.4,0,13.2,6.1,13.2,15.5c0,1.2-0.1,2.2-0.2,3.1h-22.3c0.4,7.1,4.7,11.6,11,11.6
		c3.1,0,5.8-1,8.2-2.6l2,3.7c-2.9,1.8-6.4,3.4-10.9,3.4c-8.8,0-15.8-6.5-15.8-17.3C119.8,57.2,127.1,50.6,134.7,50.6z M143,65.5
		c0-6.7-3-10.5-8.2-10.5c-4.6,0-8.8,3.8-9.5,10.5H143z"/>
	<path fill="#FFFFFF" d="M169.5,50.6c4.4,0,7.4,1.8,9.7,3.9l-2.8,3.6c-2-1.7-4-2.9-6.7-2.9c-6,0-10.3,5.2-10.3,12.8
		c0,7.5,4.1,12.6,10.2,12.6c3.1,0,5.8-1.6,7.8-3.3l2.5,3.7c-3,2.7-6.8,4.3-10.7,4.3c-8.8,0-15.5-6.3-15.5-17.3
		C153.6,56.9,161,50.6,169.5,50.6z"/>
	<path fill="#FFFFFF" d="M186.6,51.4h5.6v20.2c0,6.2,1.8,8.8,6.2,8.8c3.4,0,5.8-1.7,8.9-5.6V51.4h5.6v33h-4.6l-0.5-5.2h-0.2
		c-3.1,3.6-6.3,6-10.9,6c-7,0-10.1-4.5-10.1-12.9V51.4z"/>
	<path fill="#FFFFFF" d="M224,51.4h4.6l0.5,6h0.2c2.2-4.1,5.6-6.8,9.4-6.8c1.4,0,2.4,0.2,3.5,0.7l-1.1,4.9c-1.1-0.3-1.8-0.5-3.2-0.5
		c-2.8,0-6.1,2-8.4,7.6v21.2H224V51.4z"/>
	<path fill="#FFFFFF" d="M259.3,50.6c8.4,0,13.2,6.1,13.2,15.5c0,1.2-0.1,2.2-0.2,3.1H250c0.4,7.1,4.7,11.6,11,11.6
		c3.1,0,5.8-1,8.2-2.6l2,3.7c-2.9,1.8-6.4,3.4-10.9,3.4c-8.8,0-15.8-6.5-15.8-17.3C244.5,57.2,251.8,50.6,259.3,50.6z M267.6,65.5
		c0-6.7-3-10.5-8.2-10.5c-4.6,0-8.8,3.8-9.5,10.5H267.6z"/>
	<path fill="#FFFFFF" d="M284.9,76.7c2.2,0,4,1.8,4,4.4c0,2.4-1.8,4.2-4,4.2c-2.2,0-4.1-1.8-4.1-4.2
		C280.9,78.5,282.7,76.7,284.9,76.7z M282.2,45.3l-0.1-6.4h5.6l-0.1,6.4L286.9,71H283L282.2,45.3z"/>
</g>
<path fill="#E64C3C" d="M205.7,220.9l-27.5-27.4l27.4-27.4c5.3-5.3,5.3-13.9,0-19.2s-13.9-5.3-19.2,0l-27.3,27.4L131.7,147
	c-5.2-5.3-13.9-5.3-19.1,0c-5.3,5.3-5.3,13.9,0,19.2l27.4,27.4l-27.4,27.4c-5.3,5.3-5.3,13.9,0,19.2c5.3,5.3,13.9,5.3,19.2,0
	l27.4-27.4l27.4,27.4c5.3,5.3,13.9,5.3,19.2,0C211,234.8,211,226.3,205.7,220.9z"/>
</svg>
