<?xml version="1.0" encoding="utf-8"?>
<!-- Generator: Adobe Illustrator 18.0.0, SVG Export Plug-In . SVG Version: 6.00 Build 0)  -->
<!DOCTYPE svg PUBLIC "-//W3C//DTD SVG 1.1//EN" "http://www.w3.org/Graphics/SVG/1.1/DTD/svg11.dtd">
<svg version="1.1" id="Layer_1" xmlns="http://www.w3.org/2000/svg" xmlns:xlink="http://www.w3.org/1999/xlink" x="0px" y="0px"
	 viewBox="0 0 318.8 318.8" enable-background="new 0 0 318.8 318.8" xml:space="preserve">
<rect x="4.1" y="4.1" fill="#3B97D3" stroke="#3B97D3" stroke-width="8.2553" stroke-miterlimit="10" width="310.5" height="310.5"/>
<g>
	<circle fill="#FFFFFF" stroke="#3B97D3" stroke-width="11.9642" stroke-miterlimit="10" cx="159.4" cy="193.6" r="89"/>
	<path fill="#3B97D3" d="M146.9,210l-16.3-15.9c0,0-4.4-4.5-8.5-5.7c-4.1-1.2-9.4,4.5-8.9,8.5s5.5,9.1,5.5,9.1l21.4,22
		c0,0,2.8,2.5,5.2,3.1c2.4,0.6,3.3,0.7,5.5,0c2.8-1.9,3.1-2.5,5.5-4.8s53.8-53.8,53.8-53.8s4.8-4.1,4.9-8.7c0-4.2-5.2-9.3-9.5-8.7
		c-4.3,0.6-10.6,7.6-10.6,7.6L146.9,210z"/>
</g>
<g>
	<path fill="#FFFFFF" d="M44.4,74.7c3.2,3.3,7.6,5.6,12.3,5.6c5.8,0,9.3-2.9,9.3-7.3c0-4.6-3.3-6-7.5-7.9l-6.4-2.8
		c-4.1-1.8-9-5-9-11.5c0-6.8,6-11.8,14.1-11.8c5.3,0,10,2.2,13.1,5.5l-3,3.7c-2.7-2.6-6.1-4.2-10.1-4.2c-5,0-8.4,2.5-8.4,6.5
		c0,4.3,3.9,5.9,7.4,7.4l6.4,2.7c5.2,2.2,9.2,5.3,9.2,11.9c0,7.1-5.8,12.7-15.2,12.7c-6.3,0-11.7-2.6-15.6-6.6L44.4,74.7z"/>
	<path fill="#FFFFFF" d="M92.2,50.6c8.4,0,13.2,6.1,13.2,15.5c0,1.2-0.1,2.2-0.2,3.1H82.9c0.4,7.1,4.7,11.6,11,11.6
		c3.1,0,5.8-1,8.2-2.6l2,3.7c-2.9,1.8-6.4,3.4-10.9,3.4c-8.8,0-15.8-6.5-15.8-17.3C77.3,57.2,84.6,50.6,92.2,50.6z M100.5,65.5
		c0-6.7-3-10.5-8.2-10.5c-4.6,0-8.8,3.8-9.5,10.5H100.5z"/>
	<path fill="#FFFFFF" d="M127,50.6c4.4,0,7.4,1.8,9.7,3.9l-2.8,3.6c-2-1.7-4-2.9-6.7-2.9c-6,0-10.3,5.2-10.3,12.8
		c0,7.5,4.1,12.6,10.2,12.6c3.1,0,5.8-1.6,7.8-3.3l2.5,3.7c-3,2.7-6.8,4.3-10.7,4.3c-8.8,0-15.5-6.3-15.5-17.3
		C111.1,56.9,118.5,50.6,127,50.6z"/>
	<path fill="#FFFFFF" d="M144.1,51.4h5.6v20.2c0,6.2,1.8,8.8,6.2,8.8c3.4,0,5.8-1.7,8.9-5.6V51.4h5.6v33h-4.6l-0.5-5.2h-0.2
		c-3.1,3.6-6.3,6-10.9,6c-7,0-10.1-4.5-10.1-12.9V51.4z"/>
	<path fill="#FFFFFF" d="M181.5,51.4h4.6l0.5,6h0.2c2.2-4.1,5.6-6.8,9.4-6.8c1.4,0,2.4,0.2,3.5,0.7l-1.1,4.9
		c-1.1-0.3-1.8-0.5-3.2-0.5c-2.8,0-6.1,2-8.4,7.6v21.2h-5.6V51.4z"/>
	<path fill="#FFFFFF" d="M216.8,50.6c8.4,0,13.2,6.1,13.2,15.5c0,1.2-0.1,2.2-0.2,3.1h-22.3c0.4,7.1,4.7,11.6,11,11.6
		c3.1,0,5.8-1,8.2-2.6l2,3.7c-2.9,1.8-6.4,3.4-10.9,3.4C209,85.3,202,78.8,202,68C202,57.2,209.3,50.6,216.8,50.6z M225.1,65.5
		c0-6.7-3-10.5-8.2-10.5c-4.6,0-8.8,3.8-9.5,10.5H225.1z"/>
	<path fill="#FFFFFF" d="M250.1,50.6c3.8,0,6.3,1.4,9.2,3.8l-0.3-5.6V36.1h5.6v48.4h-4.6l-0.5-3.9h-0.2c-2.6,2.5-6.1,4.7-10,4.7
		c-8.3,0-13.7-6.3-13.7-17.3C235.8,57.3,242.6,50.6,250.1,50.6z M250.7,80.6c3.1,0,5.7-1.5,8.4-4.6V58.8c-2.8-2.5-5.3-3.5-8-3.5
		c-5.3,0-9.5,5.1-9.5,12.6C241.6,75.8,244.9,80.6,250.7,80.6z"/>
	<path fill="#FFFFFF" d="M280.2,76.7c2.2,0,4,1.8,4,4.4c0,2.4-1.8,4.2-4,4.2c-2.2,0-4.1-1.8-4.1-4.2
		C276.1,78.5,277.9,76.7,280.2,76.7z M277.5,45.3l-0.1-6.4h5.6l-0.1,6.4L282.1,71h-3.9L277.5,45.3z"/>
</g>
</svg>
